<?xml version="1.0" encoding="UTF-8" standalone="no"?>
<!-- Created with Inkscape (http://www.inkscape.org/) -->

<svg
   xmlns:dc="http://purl.org/dc/elements/1.1/"
   xmlns:cc="http://creativecommons.org/ns#"
   xmlns:rdf="http://www.w3.org/1999/02/22-rdf-syntax-ns#"
   xmlns:svg="http://www.w3.org/2000/svg"
   xmlns="http://www.w3.org/2000/svg"
   xmlns:sodipodi="http://sodipodi.sourceforge.net/DTD/sodipodi-0.dtd"
   xmlns:inkscape="http://www.inkscape.org/namespaces/inkscape"
   id="svg2"
   sodipodi:docname="favicon.svg"
   viewBox="0 0 470.07 450.08"
   sodipodi:version="0.32"
   version="1.0"
   inkscape:version="0.91 r13725">
  <defs
     id="defs11" />
  <sodipodi:namedview
     id="base"
     bordercolor="#666666"
     inkscape:pageshadow="2"
     inkscape:window-y="0"
     pagecolor="#ffffff"
     inkscape:window-height="1339"
     width="480px"
     inkscape:zoom="1.0914828"
     inkscape:window-x="-4"
     height="460px"
     borderopacity="1.0"
     inkscape:current-layer="layer2"
     inkscape:cx="-83.796166"
     inkscape:cy="425.07554"
     inkscape:window-width="1853"
     inkscape:pageopacity="0.0"
     inkscape:document-units="px"
     showgrid="false"
     inkscape:window-maximized="0" />
  <g
     id="layer2"
     inkscape:groupmode="layer"
     transform="translate(-10.774 -5.3784)">
    <path
       id="path2760"
       sodipodi:nodetypes="czzzzczzzzc"
       style="fill-rule:evenodd;fill:#e70000"
       d="m230.51 122.98c-32.75-23.156-58.81-27.362-104.56-27.208-44.968 0.152-89.813 18.168-104.51 56.458-14.702 38.28-15.254 77.22 8.505 135.63 23.759 58.4 65.162 108.45 116.44 141.35 51.91 33.32 91.52 11.07 110.33 11.07 78.1 17.52 119.43 24.79 158.59-5.54 38.27-29.64 43.22-42.96 54.5-80.09 11.46-37.73 10.38-113.26-0.73-165.72-11.11-52.45-39.95-75.81-92.39-92.478-52.45-16.665-106.54-4.052-146.17 26.528z" />
    <path
       id="path2764"
       sodipodi:nodetypes="czzzzczszzc"
       style="stroke-linejoin:round;stroke:black;stroke-linecap:round;stroke-width:13.561;fill:none"
       d="m245.17 130.45c-30.01-21.85-55.44-25.68-100.87-25.2-44.666 0.47-91.13 17.98-109.85 54.6-18.718 36.61-23.462 73.76-6.167 129.29s53.007 102.97 100.37 133.98c47.95 31.4 89.67 9.9 108.34 9.76 75.65 16.15 115.91 22.79 158.05-6.42 41.19-28.55 51.03-52.93 62.74-76.78 17.34-35.29 22.76-96.99 6.72-147.73-15.8-49.94-31.5-84.91-81.77-100.43-50.27-15.518-94.92-0.52-137.56 28.93z" />
    <path
       id="path2770"
       sodipodi:nodetypes="ccccc"
       style="fill-rule:evenodd;stroke:black;stroke-width:1.0884px;fill:black"
       d="m179.66 27.805c5.03-18.168 51.27-17.607 63.94-21.882 0-0.0004-4.78 95.867 7.63 143.8-19.18-1.07-20.99-4.17-20.99-4.17s-28.63-104.2-50.58-117.74z" />
    <path
       id="path2776"
       sodipodi:nodetypes="ccc"
       style="fill-rule:evenodd;fill:white"
       d="m417.51 317.86c2.42-1.1-7.19 69.49-97.42 89.43 23.05-16.16 82.75-39.87 97.42-89.43z" />
    <path
       style="fill:#000000"
       d="m 220.89402,383.15908 c -7.56696,-4.47468 -8.97665,-11.09428 -8.98772,-42.20434 l -0.0102,-26.51804 -4.46744,-1.08743 c -2.45711,-0.5981 -15.26369,-0.5784 -28.45911,0.0437 -21.97464,1.03611 -24.65076,0.84845 -31.83171,-2.2322 -9.95368,-4.27016 -11.44693,-8.87362 -11.45983,-35.32913 -0.017,-34.28724 1.79788,-35.67899 46.51963,-35.67899 l 29.69846,0 0,-31.34032 0,-31.34034 4.80644,-4.66143 c 6.02876,-5.84687 14.21364,-7.15123 39.60726,-6.31195 30.62386,1.01214 31.7895,2.70304 31.8044,46.13647 l 0.0102,27.51757 30.57514,0 c 33.21191,0 38.2072,1.05548 41.86734,8.84626 3.2471,6.91163 4.02185,18.94782 2.42586,37.68805 -1.37012,16.08829 -1.94638,18.20368 -6.04153,22.17833 l -4.52695,4.39372 -32.57341,0.52887 -32.57342,0.52888 0.53533,26.57798 c 0.59178,29.38071 -0.76128,36.8948 -7.58034,42.09683 -4.00382,3.05439 -6.76641,3.37324 -29.17979,3.36767 -21.53221,-0.005 -25.46086,-0.42222 -30.15861,-3.20022 z m 55.26523,-7.37772 c 3.1914,-2.80104 3.45818,-5.27698 3.88457,-36.05062 l 0.45782,-33.04303 34.24645,-0.82142 c 27.54657,-0.66071 34.74864,-1.30932 36.8134,-3.31535 1.84147,-1.78907 2.88248,-7.85142 3.68332,-21.45 1.1978,-20.33943 -0.54281,-29.91223 -5.79682,-31.88048 -1.58537,-0.5939 -16.98457,-1.03989 -34.22047,-0.99108 -17.23589,0.0488 -32.24384,-0.4702 -33.35102,-1.15337 -1.41349,-0.87216 -2.17026,-10.93962 -2.54092,-33.80214 -0.66568,-41.06005 1.06321,-38.83476 -30.17193,-38.83476 -31.30119,0 -29.79191,-1.90844 -29.09448,36.78971 0.30227,16.7716 0.0603,31.98879 -0.53764,33.81595 -1.04327,3.1879 -2.45145,3.32214 -34.85197,3.32214 -43.13727,0 -40.55053,-1.80938 -40.5146,28.33898 0.0135,11.97219 0.58597,22.58104 1.27045,23.57524 3.41685,4.96279 9.85204,6.0873 31.68998,5.53764 39.06405,-0.98328 39.86244,-0.95083 41.58352,1.69037 0.88317,1.35534 1.61746,16.97447 1.63172,34.70919 0.0195,24.17365 0.56881,32.68187 2.19472,33.99055 2.68739,2.16303 16.09451,3.24814 35.44831,2.86901 11.6293,-0.22782 15.47364,-0.92507 18.17559,-3.29653 z"
       id="path4172"
       inkscape:connector-curvature="0" />
    <path
       style="fill:#ffffff;fill-opacity:1;stroke:#000000;stroke-width:2.93179154;stroke-miterlimit:4;stroke-dasharray:none;stroke-opacity:1"
       d="m 221.20177,372.62762 c -7.1678,-0.83822 -9.31532,-1.58304 -10.07184,-3.49321 -0.34165,-0.86264 -0.94109,-16.1327 -1.33209,-33.93345 -0.62518,-28.46201 -0.89619,-32.54999 -2.24737,-33.89884 -1.3777,-1.37535 -4.8224,-1.53383 -33.33853,-1.53383 -28.08807,0 -32.13085,-0.18019 -34.61735,-1.54292 -5.48071,-3.0037 -5.43038,-2.75861 -5.43038,-26.4421 0,-20.42282 0.11119,-21.87309 1.82212,-23.7658 3.65448,-4.04277 4.28161,-4.11906 37.77111,-4.59455 29.37444,-0.41707 32.41018,-0.60446 33.89884,-2.09252 1.48734,-1.48673 1.67744,-4.50852 2.10378,-33.44075 0.25778,-17.49348 0.82309,-32.54306 1.25625,-33.44353 1.89914,-3.94797 5.60493,-4.729 24.07048,-5.0731 24.76824,-0.46154 29.32112,0.72111 31.51924,8.18739 0.50259,1.70711 1.28711,15.88837 1.74338,31.5139 0.45627,15.62554 1.23459,29.47531 1.7296,30.77728 0.86878,2.28505 1.24155,2.38811 10.73989,2.96927 5.41193,0.33113 19.97975,0.64315 32.37293,0.69338 12.39317,0.0502 23.56376,0.36921 24.82351,0.70884 5.6161,1.51412 7.74131,15.94657 5.59098,37.96858 -1.09835,11.24844 -2.13118,14.81095 -4.56984,15.76262 -2.19823,0.85786 -26.33225,2.21792 -39.95899,2.25189 -6.55073,0.0163 -15.93017,0.29588 -20.84321,0.62122 l -8.9328,0.59154 -0.0628,16.12409 c -0.0345,8.86826 -0.37628,23.67144 -0.75945,32.89598 -0.67099,16.15324 -0.7799,16.85507 -2.95255,19.02772 -1.5542,1.55421 -3.95391,2.53392 -7.71525,3.14985 -6.0855,0.99651 -28.1258,1.00316 -36.60968,0.0111 l -2e-5,-4e-5 z"
       id="path4174"
       inkscape:connector-curvature="0"
       transform="translate(10.774,5.3784)" />
  </g>
  <metadata
     id="metadata9">
    <rdf:RDF>
      <cc:Work>
        <dc:format>image/svg+xml</dc:format>
        <dc:type
           rdf:resource="http://purl.org/dc/dcmitype/StillImage" />
        <cc:license
           rdf:resource="http://creativecommons.org/licenses/publicdomain/" />
        <dc:publisher>
          <cc:Agent
             rdf:about="http://openclipart.org/">
            <dc:title>Openclipart</dc:title>
          </cc:Agent>
        </dc:publisher>
        <dc:title></dc:title>
        <dc:date>2006-12-09T09:28:40</dc:date>
        <dc:description />
        <dc:source>https://openclipart.org/detail/1951/manzana-by-pvalencia</dc:source>
        <dc:creator>
          <cc:Agent>
            <dc:title>pvalencia</dc:title>
          </cc:Agent>
        </dc:creator>
        <dc:subject>
          <rdf:Bag>
            <rdf:li>apple</rdf:li>
            <rdf:li>food</rdf:li>
            <rdf:li>fruit</rdf:li>
            <rdf:li>red</rdf:li>
          </rdf:Bag>
        </dc:subject>
      </cc:Work>
      <cc:License
         rdf:about="http://creativecommons.org/licenses/publicdomain/">
        <cc:permits
           rdf:resource="http://creativecommons.org/ns#Reproduction" />
        <cc:permits
           rdf:resource="http://creativecommons.org/ns#Distribution" />
        <cc:permits
           rdf:resource="http://creativecommons.org/ns#DerivativeWorks" />
      </cc:License>
    </rdf:RDF>
  </metadata>
</svg>
